<svg width="50" height="50" viewBox="0 0 50 50" fill="none" xmlns="http://www.w3.org/2000/svg">
<path d="M49.175 0.00942259C48.7245 0.0208044 48.3581 0.401424 48.3334 0.883364V1.0494C48.2715 2.61897 47.1891 3.9262 45.7417 4.17917L44.4717 4.40591C40.8949 5.0434 37.2752 5.36443 33.6492 5.36555H16.3509C12.7249 5.36443 9.10515 5.0434 5.52838 4.40591L4.25838 4.17917C2.81109 3.9262 1.72859 2.61897 1.66671 1.0494V0.883364C1.66192 0.390377 1.28484 -0.00508355 0.824629 4.94078e-05C0.364421 0.00529395 -0.00474554 0.409124 4.61227e-05 0.90211C4.61227e-05 0.970847 4.61227e-05 1.03869 4.61227e-05 1.10654L0.833379 44.6626C0.840671 45.0401 1.069 45.3718 1.40338 45.491L8.84671 48.1485L12.1275 49.9107C12.2436 49.9709 12.3711 50.0015 12.5 49.9999H37.5C37.629 50.0015 37.7565 49.9709 37.8725 49.9107L41.1534 48.153L48.5967 45.4954C48.9326 45.3757 49.1611 45.0417 49.1667 44.6626L50 1.10654C50 1.03869 50 0.970847 50 0.90211C50.0002 0.412583 49.632 0.0143324 49.175 0.00942259ZM19.1667 48.2146H12.6967L9.53921 46.5229C9.5039 46.5041 9.46744 46.488 9.43005 46.4747L2.48755 43.9957L1.74255 4.85582C2.38838 5.42123 3.1613 5.79516 3.98421 5.94044L5.25421 6.16718C8.92161 6.82074 12.6331 7.1497 16.3509 7.15093H19.1667V48.2146ZM29.1667 48.2146H20.8334V7.15093H29.1667V48.2146ZM47.5126 43.9957L40.57 46.4747C40.5327 46.488 40.4962 46.5041 40.4609 46.5229L37.3034 48.2146H30.8334V7.15093H33.6492C37.3684 7.15059 41.0812 6.82219 44.75 6.16897L46.0201 5.94223C46.843 5.79694 47.6159 5.42302 48.2617 4.85761L47.5126 43.9957Z" fill="white"/>
</svg>
