<svg width="38" height="46" viewBox="0 0 38 46" fill="none" xmlns="http://www.w3.org/2000/svg">
<path d="M33.5915 0.112015C32.7016 0.336808 20.3552 3.14673 17.1295 12.5881C15.906 16.2972 16.3509 19.8939 16.3509 20.1186C17.0183 24.9517 19.799 28.0988 20.9113 29.2228C19.1317 29.7848 14.9049 30.9087 9.67717 29.6724C4.67185 28.436 1.4462 25.6261 0.11145 24.2773C0.556367 21.5798 1.89112 16.0724 6.22906 10.7897C10.567 5.50706 15.7948 3.37152 18.4643 2.24755C24.8044 -0.225176 30.4771 -0.112779 33.5915 0.112015Z" fill="#1A4AA1"/>
<path d="M0 28.0986C2.00213 30.1218 7.34113 35.0672 15.3496 35.854C21.1336 36.416 25.9164 34.5053 28.9196 33.2689C32.7014 31.8077 35.4821 29.897 37.373 28.5482C37.818 30.3466 38.1516 32.9317 37.9292 35.854C37.818 38.8887 37.1506 41.3615 36.5944 43.1598C31.033 45.0706 24.3592 45.2953 21.1336 44.7334C16.7956 43.9466 11.4566 41.9234 6.56253 37.6524C2.6695 34.2805 0.889834 30.3466 0 28.0986Z" fill="#C91A12"/>
<path d="M27.9185 26.3017C31.9729 26.3017 35.2597 22.9805 35.2597 18.8835C35.2597 14.7866 31.9729 11.4653 27.9185 11.4653C23.8641 11.4653 20.5774 14.7866 20.5774 18.8835C20.5774 22.9805 23.8641 26.3017 27.9185 26.3017Z" stroke="#1A4AA1" stroke-miterlimit="10"/>
</svg>
