<svg width="29" height="36" viewBox="0 0 29 36" fill="none" xmlns="http://www.w3.org/2000/svg">
<path d="M27.8787 16.7863L2.17886 1.06992C1.96251 0.936466 1.71448 0.863148 1.46035 0.857527C1.20622 0.851907 0.955189 0.914187 0.733155 1.03794C0.511122 1.1617 0.326125 1.34245 0.197247 1.56155C0.0683701 1.78065 0.000280084 2.03017 0 2.28436V33.7171C0.000280084 33.9713 0.0683701 34.2208 0.197247 34.4399C0.326125 34.659 0.511122 34.8398 0.733155 34.9635C0.955189 35.0873 1.20622 35.1496 1.46035 35.1439C1.71448 35.1383 1.96251 35.065 2.17886 34.9315L27.8787 19.2152C28.0897 19.0904 28.2646 18.9128 28.3861 18.6998C28.5075 18.4868 28.5714 18.2459 28.5714 18.0007C28.5714 17.7556 28.5075 17.5146 28.3861 17.3017C28.2646 17.0887 28.0897 16.9111 27.8787 16.7863Z" fill="white"/>
</svg>
